<?xml version="1.0" encoding="utf-8"?>
<!-- Generator: Adobe Illustrator 16.0.2, SVG Export Plug-In . SVG Version: 6.00 Build 0)  -->
<!DOCTYPE svg PUBLIC "-//W3C//DTD SVG 1.1//EN" "http://www.w3.org/Graphics/SVG/1.1/DTD/svg11.dtd">
<svg version="1.1" id="Layer_1" xmlns="http://www.w3.org/2000/svg" xmlns:xlink="http://www.w3.org/1999/xlink" x="0px" y="0px"
	 width="220.489px" height="137.244px" viewBox="0 0 220.489 137.244" enable-background="new 0 0 220.489 137.244"
	 xml:space="preserve">
<polygon fill="#FFFFFF" points="78.718,23.429 92.059,26.103 72.559,74.716 59.218,72.042 "/>
<polygon fill="#FFFFFF" points="125.974,32.717 122.433,42.194 75.106,33.358 78.647,23.881 "/>
<polygon fill="#FFFFFF" points="123.224,6.581 139.164,9.776 119.221,59.494 103.28,56.298 "/>
<g>
	<g>
		<path fill="#F7F7F7" stroke="#000000" stroke-width="4" stroke-miterlimit="10" d="M91.875,79.266"/>
		<path fill="#F7F7F7" stroke="#000000" stroke-width="4" stroke-miterlimit="10" d="M160.108,65.777"/>
		<path fill="#F7F7F7" stroke="#000000" stroke-width="4" stroke-miterlimit="10" d="M145.033,62.922"/>
		<path fill="#F7F7F7" stroke="#000000" stroke-width="4" stroke-miterlimit="10" d="M90.631,86.736"/>
		<polyline fill="#FFFFFF" stroke="#000000" stroke-width="4" stroke-miterlimit="10" points="138.754,9.594 211.617,23.395 
			195.263,66.541 175.21,62.743 161.44,99.07 122.525,91.699 109.919,125.104 109.866,125.244 7.735,105.899 22.738,66.32 
			59.937,73.366 		"/>
		<path fill="#F7F7F7" stroke="#000000" stroke-width="4" stroke-miterlimit="10" d="M122.399,52.74"/>
		<g>
			<g>
				<path fill="#0C0C0C" stroke="#C20C0D" stroke-width="2" stroke-miterlimit="10" d="M164.619,45.128l1.272-0.091l0.998-2.647
					L164.619,45.128z M164.845,34.717l3.256,4.463l1.4-3.71L164.845,34.717z"/>
				<path stroke="#C20C0D" stroke-width="2" stroke-miterlimit="10" d="M188.42,40.998l-7.743-2.955l-1.115-5.873l-6.16,3.934
					l-3.902-0.632l-4.656-0.753l3.256,4.463l-1.211,3.21l-2.271,2.738l1.272-0.091l7.312-0.512l5.977,4.49l1.382-5.767
					L188.42,40.998z"/>
			</g>
			<g>
				<g>
					<path stroke="#C20C0D" stroke-width="2" stroke-miterlimit="10" d="M46.577,96.489c-6.644-1.248-11.116-4.681-9.989-7.671
						c1.127-2.986,7.424-4.396,14.068-3.147c6.644,1.249,11.117,4.681,9.99,7.667C59.518,96.327,53.22,97.736,46.577,96.489z
						 M94.554,90.352l-4.326,11.472c-0.683,1.811-3.417,2.876-6.097,2.373c-2.678-0.504-4.301-2.387-3.619-4.198l4.326-11.473
						l-0.462-0.087l-4.327,11.472c-0.752,1.997,1.023,4.068,3.957,4.619c2.933,0.551,5.932-0.623,6.685-2.619l4.326-11.473
						L94.554,90.352z"/>
				</g>
				<g>
					<path stroke="#C20C0D" stroke-width="2" stroke-miterlimit="10" d="M60.646,93.337c-1.128,2.989-7.426,4.4-14.069,3.151
						c-6.644-1.248-11.116-4.681-9.989-7.671c1.127-2.986,7.424-4.396,14.068-3.147C57.3,86.918,61.773,90.351,60.646,93.337z"/>
				</g>
			</g>
			<g>
				<polygon fill="#0C0C0C" stroke="#C20C0D" stroke-width="2" stroke-miterlimit="10" points="180.562,43.249 179.18,49.015 
					173.204,44.526 165.892,45.038 164.619,45.128 166.89,42.39 168.101,39.18 164.845,34.717 169.5,35.471 173.403,36.103 
					179.563,32.17 180.678,38.042 188.42,40.998 				"/>
			</g>
			<g>
				<g id="XMLID_4_">
					<g>
						<path stroke="#C20C0D" stroke-width="2" stroke-miterlimit="10" d="M187.698,27.726l-52.203-9.808l-9.327,24.731
							l-37.936-7.127L73.077,75.705l-3.738,9.909l-37.164-6.982L24.389,99.28l57.399,10.783l17.701,3.326l8.791-23.309l3.66-9.704
							l37.936,7.127l8.329-22.085l1.264-3.353l3.527-9.353l14.269,2.68c6.852,1.288,14.749-3.862,17.629-11.501
							C197.776,36.251,194.55,29.013,187.698,27.726z M145.365,67.28c-0.026,0.073-0.059,0.143-0.095,0.214
							c-0.02,0.078-0.044,0.154-0.074,0.231c-0.609,1.617-2.802,2.612-4.885,2.221l-35.083-6.591l-14.541,38.555
							c-0.751,1.997-3.751,3.17-6.684,2.619c-2.933-0.551-4.709-2.622-3.957-4.619l15.464-41.006
							c0.03-0.079,0.066-0.159,0.105-0.236l0.001-0.003c0.021-0.081,0.044-0.157,0.075-0.238c0.609-1.617,2.804-2.611,4.885-2.22
							l35.083,6.591l12.449-33.011c0.656-1.742,3.579-2.712,6.512-2.161c2.932,0.552,4.785,2.417,4.129,4.159L145.365,67.28z
							 M180.562,43.249l-1.382,5.767l-5.976-4.489l-7.313,0.512l-1.272,0.091l2.27-2.738l1.211-3.21l-3.256-4.463l4.656,0.753
							l3.903,0.632l6.16-3.934l1.115,5.873l7.743,2.956L180.562,43.249z"/>
						<polygon stroke="#C20C0D" stroke-width="2" stroke-miterlimit="10" points="180.562,43.249 179.18,49.015 173.204,44.526 
							165.892,45.038 164.619,45.128 166.89,42.39 168.101,39.18 164.845,34.717 169.5,35.471 173.403,36.103 179.563,32.17 
							180.678,38.042 188.42,40.998 						"/>
						<path fill="#0C0C0C" stroke="#C20C0D" stroke-width="2" stroke-miterlimit="10" d="M151.662,50.583l-6.297,16.698
							c-0.026,0.072-0.059,0.143-0.095,0.214c0.078-0.275,0.097-0.551,0.075-0.817l6.085-16.138L151.662,50.583z"/>
						<path fill="#0C0C0C" stroke="#C20C0D" stroke-width="2" stroke-miterlimit="10" d="M158.752,31.785l-7.09,18.798l-0.231-0.043
							l7.089-18.797c0.311-0.827,0.026-1.686-0.688-2.402c-0.717-0.717-1.861-1.292-3.269-1.556c-2.812-0.528-5.596,0.39-6.22,2.047
							l-7.089,18.798l-0.231-0.043l7.088-18.798c0.656-1.742,3.579-2.712,6.512-2.161C157.556,28.177,159.409,30.042,158.752,31.785
							z"/>
						<path fill="#0C0C0C" stroke="#C20C0D" stroke-width="2" stroke-miterlimit="10" d="M145.198,67.726
							c-0.61,1.617-2.803,2.612-4.885,2.221L117.49,65.66l0.061-0.158l22.821,4.288c0.982,0.185,1.988,0.04,2.82-0.339
							c0.586-0.27,1.085-0.662,1.434-1.139c0.276-0.244,0.499-0.519,0.647-0.817C145.25,67.571,145.227,67.649,145.198,67.726z"/>
						<path fill="#0C0C0C" stroke="#C20C0D" stroke-width="2" stroke-miterlimit="10" d="M145.346,66.677
							c0.022,0.267,0.003,0.542-0.075,0.817c-0.148,0.298-0.371,0.574-0.646,0.818c0.144-0.196,0.257-0.406,0.342-0.629
							c0.028-0.076,0.053-0.153,0.07-0.227c0.001-0.003,0.003-0.006,0.004-0.009c0.035-0.067,0.066-0.139,0.093-0.211
							L145.346,66.677z"/>
						<path fill="#0C0C0C" stroke="#C20C0D" stroke-width="2" stroke-miterlimit="10" d="M145.346,66.677l-0.212,0.56
							c-0.027,0.072-0.058,0.144-0.094,0.211c0.071-0.267,0.092-0.531,0.065-0.79l0.158-0.421
							C145.304,66.38,145.333,66.526,145.346,66.677z"/>
						<path fill="#0C0C0C" stroke="#C20C0D" stroke-width="2" stroke-miterlimit="10" d="M151.432,50.539l-6.086,16.138
							c-0.013-0.151-0.042-0.297-0.082-0.44l5.937-15.742L151.432,50.539z"/>
						<path fill="#0C0C0C" stroke="#C20C0D" stroke-width="2" stroke-miterlimit="10" d="M158.521,31.741l-7.089,18.798
							l-0.231-0.043l7.09-18.798c0.591-1.569-1.107-3.255-3.786-3.758c-2.679-0.503-5.339,0.364-5.93,1.933l-7.089,18.798
							l-0.231-0.044l7.088-18.797c0.625-1.658,3.409-2.575,6.221-2.047c1.407,0.264,2.551,0.839,3.268,1.556
							C158.547,30.056,158.832,30.915,158.521,31.741z"/>
						<path fill="#0C0C0C" stroke="#C20C0D" stroke-width="2" stroke-miterlimit="10" d="M144.966,67.684
							c-0.083,0.223-0.198,0.433-0.342,0.629c-0.245,0.213-0.53,0.405-0.853,0.57c0.249-0.189,0.463-0.405,0.635-0.648
							c0.271-0.232,0.483-0.492,0.63-0.778C145.019,67.531,144.994,67.608,144.966,67.684z"/>
						<path fill="#0C0C0C" stroke="#C20C0D" stroke-width="2" stroke-miterlimit="10" d="M145.04,67.448l-0.003,0.009
							c-0.148,0.286-0.359,0.545-0.63,0.778c0.138-0.182,0.25-0.384,0.329-0.595c0.028-0.075,0.051-0.149,0.07-0.224
							c0.035-0.069,0.071-0.147,0.099-0.223l0.202-0.535C145.131,66.917,145.111,67.182,145.04,67.448z"/>
						<path fill="#0C0C0C" stroke="#C20C0D" stroke-width="2" stroke-miterlimit="10" d="M144.624,68.313
							c-0.348,0.477-0.847,0.868-1.434,1.139c-0.832,0.378-1.837,0.523-2.82,0.339l-22.82-4.288l0.058-0.157l19.978,3.754
							c0.393,0.141,0.819,0.257,1.268,0.343c0.449,0.083,0.9,0.131,1.341,0.147l0.235,0.044c1.213,0.228,2.471-0.088,3.34-0.75
							C144.094,68.718,144.379,68.526,144.624,68.313z"/>
						<path fill="#FFFFFF" stroke="#C20C0D" stroke-width="2" stroke-miterlimit="10" d="M143.771,68.883
							c-0.87,0.662-2.128,0.978-3.34,0.75l-0.236-0.044C141.545,69.636,142.812,69.376,143.771,68.883z"/>
						<path fill="#0C0C0C" stroke="#C20C0D" stroke-width="2" stroke-miterlimit="10" d="M140.195,69.589
							c-0.441-0.016-0.892-0.064-1.341-0.148s-0.875-0.201-1.268-0.342L140.195,69.589z"/>
						<polygon fill="#0C0C0C" stroke="#C20C0D" stroke-width="2" stroke-miterlimit="10" points="135.781,63.161 135.839,63.004 
							136.071,63.046 136.012,63.204 						"/>
						<polygon fill="#0C0C0C" stroke="#C20C0D" stroke-width="2" stroke-miterlimit="10" points="135.841,63.003 135.901,62.846 
							136.132,62.89 136.072,63.046 						"/>
						<polygon fill="#0C0C0C" stroke="#C20C0D" stroke-width="2" stroke-miterlimit="10" points="135.902,62.837 141.262,48.622 
							141.494,48.666 136.133,62.88 						"/>
						<polygon fill="#0C0C0C" stroke="#C20C0D" stroke-width="2" stroke-miterlimit="10" points="135.545,63.109 135.604,62.953 
							135.836,62.997 135.777,63.153 						"/>
						<polygon fill="#0C0C0C" stroke="#C20C0D" stroke-width="2" stroke-miterlimit="10" points="135.599,62.95 135.659,62.792 
							135.891,62.836 135.831,62.994 						"/>
						<polygon fill="#0C0C0C" stroke="#C20C0D" stroke-width="2" stroke-miterlimit="10" points="135.671,62.794 141.032,48.581 
							141.263,48.624 135.903,62.838 						"/>
						<polygon fill="#0C0C0C" stroke="#C20C0D" stroke-width="2" stroke-miterlimit="10" points="119.584,60.11 119.643,59.953 
							135.604,62.955 135.545,63.112 						"/>
						<polygon fill="#0C0C0C" stroke="#C20C0D" stroke-width="2" stroke-miterlimit="10" points="119.647,59.947 119.707,59.79 
							135.659,62.812 135.598,62.969 						"/>
						<polygon fill="#0C0C0C" stroke="#C20C0D" stroke-width="2" stroke-miterlimit="10" points="104.78,63.255 104.84,63.097 
							117.554,65.515 117.493,65.672 						"/>
						<polygon fill="#0C0C0C" stroke="#C20C0D" stroke-width="2" stroke-miterlimit="10" points="104.827,63.127 104.886,62.969 
							117.617,65.34 117.559,65.498 						"/>
						<path fill="#0C0C0C" stroke="#C20C0D" stroke-width="2" stroke-miterlimit="10" d="M119.642,59.957l-0.061,0.157
							l-15.416-2.896c-0.159-0.091-0.334-0.178-0.518-0.255c-0.017-0.006-0.03-0.012-0.048-0.019L119.642,59.957z"/>
						<path fill="#0C0C0C" stroke="#C20C0D" stroke-width="2" stroke-miterlimit="10" d="M119.701,59.799l-0.059,0.157
							l-16.041-3.014c-0.448-0.195-0.944-0.346-1.482-0.447L119.701,59.799z"/>
						<path fill="#0C0C0C" stroke="#C20C0D" stroke-width="2" stroke-miterlimit="10" d="M91.658,99.342l-0.969,2.569
							c-0.751,1.997-3.751,3.17-6.684,2.619c-2.933-0.551-4.709-2.622-3.957-4.619l0.969-2.568c-0.13,0.346-0.177,0.693-0.143,1.037
							l-0.594,1.575c-0.36,0.952-0.116,1.924,0.568,2.722c0.686,0.796,1.813,1.421,3.22,1.686c2.812,0.528,5.671-0.588,6.39-2.497
							l0.594-1.575C91.324,100.006,91.529,99.688,91.658,99.342z"/>
						<path fill="#0C0C0C" stroke="#C20C0D" stroke-width="2" stroke-miterlimit="10" d="M105.22,63.381l-13.562,35.96
							c-0.13,0.345-0.334,0.664-0.606,0.95l13.937-36.954L105.22,63.381z"/>
						<polygon fill="#0C0C0C" stroke="#C20C0D" stroke-width="2" stroke-miterlimit="10" points="104.766,63.295 104.775,63.27 
							105.237,63.358 105.229,63.382 						"/>
						<path fill="#0C0C0C" stroke="#C20C0D" stroke-width="2" stroke-miterlimit="10" d="M91.052,100.292l-0.594,1.575
							c-0.719,1.909-3.578,3.024-6.389,2.497c-1.407-0.265-2.534-0.89-3.22-1.686c-0.684-0.798-0.928-1.77-0.568-2.722l0.594-1.575
							c0.013,0.147,0.042,0.294,0.082,0.44l-0.445,1.178c-0.682,1.811,0.941,3.694,3.619,4.198c2.679,0.503,5.414-0.562,6.097-2.373
							l0.445-1.179C90.809,100.532,90.938,100.415,91.052,100.292z"/>
						<path fill="#0C0C0C" stroke="#C20C0D" stroke-width="2" stroke-miterlimit="10" d="M104.989,63.338l-13.937,36.954
							c-0.115,0.123-0.244,0.24-0.38,0.353l14.085-37.35L104.989,63.338z"/>
						<path fill="#FFFFFF" stroke="#C20C0D" stroke-width="2" stroke-miterlimit="10" d="M104.224,57.249l-0.67-0.127
							c-0.03-0.012-0.061-0.024-0.09-0.038l0.703,0.133C104.188,57.229,104.203,57.238,104.224,57.249z"/>
						<path fill="#0C0C0C" stroke="#C20C0D" stroke-width="2" stroke-miterlimit="10" d="M104.166,57.217l-0.703-0.133
							c-0.426-0.184-0.897-0.326-1.406-0.421c-0.509-0.096-1.018-0.138-1.518-0.127l-0.097-0.019c-0.334-0.06-0.674-0.08-1.003-0.06
							c0.333-0.055,0.671-0.085,1.022-0.094l0.005,0.001c0.02,0,0.035-0.001,0.055,0l3.08,0.579c0.018,0.007,0.03,0.013,0.048,0.019
							C103.832,57.04,104.006,57.127,104.166,57.217z"/>
						<path fill="#FFFFFF" stroke="#C20C0D" stroke-width="2" stroke-miterlimit="10" d="M103.553,57.122l-1.559-0.292
							c-2.545-0.478-5.141,0.456-5.982,2.108c-0.001,0.003-0.001,0.003-0.002,0.006c-0.042,0.083-0.079,0.171-0.112,0.259l0.08-0.21
							c0.029-0.083,0.065-0.163,0.105-0.243c0.001-0.003,0.001-0.003,0.002-0.006c0.803-1.552,3.372-2.41,5.917-1.932l1.461,0.274
							C103.492,57.098,103.523,57.11,103.553,57.122z"/>
						<path fill="#0C0C0C" stroke="#C20C0D" stroke-width="2" stroke-miterlimit="10" d="M103.601,56.943l-3.081-0.579
							c0.525-0.013,1.063,0.031,1.599,0.131C102.657,56.597,103.154,56.748,103.601,56.943z"/>
						<path fill="#0C0C0C" stroke="#C20C0D" stroke-width="2" stroke-miterlimit="10" d="M103.463,57.084l-1.461-0.274l-1.462-0.275
							c0.5-0.01,1.009,0.032,1.518,0.127C102.566,56.758,103.037,56.901,103.463,57.084z"/>
						<path fill="#0C0C0C" stroke="#C20C0D" stroke-width="2" stroke-miterlimit="10" d="M102.119,56.496
							c-0.537-0.101-1.074-0.144-1.599-0.131l-0.056-0.011c-0.962-0.168-1.948-0.023-2.762,0.35
							c-0.54,0.249-1.005,0.599-1.347,1.022c-0.068,0.089-0.133,0.18-0.192,0.274c-0.233,0.236-0.423,0.493-0.569,0.772
							c0.008-0.033,0.017-0.069,0.025-0.104l0.001-0.003c0.021-0.081,0.044-0.157,0.075-0.238c0.609-1.617,2.804-2.611,4.885-2.22
							L102.119,56.496z"/>
						<path fill="#FFFFFF" stroke="#C20C0D" stroke-width="2" stroke-miterlimit="10" d="M100.539,56.536l1.462,0.274
							c-2.544-0.478-5.113,0.38-5.917,1.932c0.02-0.077,0.043-0.153,0.072-0.228c0.054-0.145,0.122-0.284,0.202-0.417
							c0.049-0.051,0.104-0.102,0.157-0.152c0-0.003,0-0.003,0.007-0.005c0.917-0.845,2.35-1.36,3.912-1.403
							C100.47,56.537,100.504,56.536,100.539,56.536z"/>
						<path fill="#FFFFFF" stroke="#C20C0D" stroke-width="2" stroke-miterlimit="10" d="M100.539,56.536c-0.035,0-0.069,0-0.104,0
							c-1.563,0.044-2.996,0.559-3.913,1.403c-0.006,0.002-0.006,0.002-0.007,0.005c-0.053,0.051-0.107,0.102-0.157,0.152
							c0.062-0.1,0.133-0.193,0.208-0.288c0.002-0.003,0.002-0.003,0.007-0.005c0.18-0.226,0.4-0.43,0.65-0.605
							c0.175-0.099,0.358-0.192,0.552-0.273c0.421-0.18,0.881-0.323,1.362-0.417c0.102-0.017,0.202-0.036,0.301-0.051
							c0.329-0.02,0.669,0,1.003,0.06L100.539,56.536z"/>
						<path fill="#0C0C0C" stroke="#C20C0D" stroke-width="2" stroke-miterlimit="10" d="M100.52,56.365
							c-0.02-0.001-0.034,0-0.055,0l-0.004-0.001c-0.351,0.009-0.689,0.039-1.022,0.095c-0.099,0.001-0.19,0.008-0.29,0.019
							c-0.477,0.055-0.933,0.188-1.349,0.383c-0.205,0.1-0.401,0.211-0.577,0.339c-0.344,0.191-0.651,0.413-0.919,0.659
							c-0.045,0.045-0.099,0.092-0.142,0.142c0.059-0.094,0.125-0.185,0.192-0.274c0.342-0.423,0.807-0.773,1.347-1.022
							c0.814-0.373,1.8-0.518,2.762-0.35L100.52,56.365z"/>
						<path fill="#FFFFFF" stroke="#C20C0D" stroke-width="2" stroke-miterlimit="10" d="M99.438,56.458
							c-0.099,0.015-0.2,0.034-0.301,0.051c-0.481,0.095-0.941,0.237-1.362,0.417c-0.194,0.082-0.377,0.175-0.552,0.273
							c0.176-0.128,0.373-0.24,0.577-0.339c0.416-0.194,0.873-0.328,1.349-0.383C99.248,56.465,99.339,56.459,99.438,56.458z"/>
						<path fill="#0C0C0C" stroke="#C20C0D" stroke-width="2" stroke-miterlimit="10" d="M97.223,57.199
							c-0.25,0.175-0.47,0.379-0.65,0.605c-0.005,0.002-0.005,0.002-0.007,0.005c-0.075,0.094-0.146,0.188-0.208,0.288
							c-0.216,0.218-0.396,0.46-0.535,0.721c0.008-0.036,0.016-0.068,0.024-0.103c0.022-0.081,0.047-0.164,0.079-0.245
							c0.062-0.164,0.14-0.32,0.236-0.47c0.043-0.05,0.098-0.097,0.143-0.142C96.571,57.612,96.878,57.39,97.223,57.199z"/>
						<path fill="#0C0C0C" stroke="#C20C0D" stroke-width="2" stroke-miterlimit="10" d="M96.157,58.514
							c-0.029,0.075-0.053,0.151-0.072,0.229c0,0.003,0,0.003-0.002,0.006c-0.04,0.08-0.076,0.161-0.105,0.243l-0.19,0.503
							c-0.026-0.221-0.016-0.447,0.036-0.677c0.138-0.26,0.319-0.503,0.536-0.721C96.279,58.23,96.211,58.37,96.157,58.514z"/>
						<path fill="#0C0C0C" stroke="#C20C0D" stroke-width="2" stroke-miterlimit="10" d="M95.628,59.917L80.957,98.82
							c-0.04-0.146-0.068-0.293-0.082-0.44l14.671-38.904C95.559,59.627,95.587,59.773,95.628,59.917z"/>
						<path fill="#0C0C0C" stroke="#C20C0D" stroke-width="2" stroke-miterlimit="10" d="M95.787,59.495l-0.159,0.421
							c-0.041-0.143-0.069-0.29-0.082-0.44l0.12-0.317c0.032-0.085,0.067-0.169,0.108-0.249c0.017-0.031,0.033-0.061,0.048-0.092
							C95.771,59.048,95.761,59.274,95.787,59.495z"/>
						<path fill="#0C0C0C" stroke="#C20C0D" stroke-width="2" stroke-miterlimit="10" d="M95.847,58.715
							c-0.008,0.035-0.015,0.067-0.024,0.103c-0.016,0.031-0.033,0.061-0.048,0.092c-0.041,0.08-0.077,0.164-0.109,0.249
							l-0.12,0.317c-0.022-0.229-0.008-0.465,0.046-0.704c0.146-0.28,0.336-0.537,0.569-0.772c-0.096,0.15-0.175,0.307-0.237,0.47
							C95.895,58.552,95.869,58.635,95.847,58.715z"/>
						<path fill="#0C0C0C" stroke="#C20C0D" stroke-width="2" stroke-miterlimit="10" d="M95.546,59.476L80.875,98.38
							c-0.035-0.343,0.012-0.691,0.143-1.037l14.416-38.228c0.033-0.084,0.071-0.172,0.111-0.252l0.001-0.002
							c0.017-0.031,0.029-0.063,0.048-0.088C95.539,59.011,95.524,59.247,95.546,59.476z"/>
						<path fill="#0C0C0C" stroke="#C20C0D" stroke-width="2" stroke-miterlimit="10" d="M95.594,58.772
							c-0.02,0.025-0.031,0.057-0.048,0.088l-0.001,0.002c-0.04,0.081-0.078,0.168-0.111,0.252l0.08-0.21
							c0.03-0.079,0.067-0.159,0.105-0.236C95.609,58.704,95.601,58.739,95.594,58.772z"/>
					</g>
					<g>
						<path fill="#FFFFFF" stroke="#C20C0D" stroke-width="2" stroke-miterlimit="10" d="M158.29,31.698l-13.386,35.495
							c-0.029,0.076-0.064,0.154-0.1,0.223c-0.018,0.075-0.041,0.148-0.07,0.224c-0.079,0.211-0.189,0.413-0.328,0.595
							c-0.171,0.244-0.386,0.458-0.636,0.648c-0.959,0.493-2.226,0.753-3.576,0.706l-35.31-6.634l-14.658,38.869
							c-0.683,1.812-3.417,2.876-6.097,2.373c-2.678-0.503-4.301-2.387-3.619-4.198l15.385-40.795
							c0.033-0.088,0.07-0.175,0.112-0.259c0.001-0.002,0.001-0.002,0.002-0.006c0.841-1.652,3.438-2.585,5.982-2.107l2.229,0.419
							c-0.021-0.011-0.037-0.021-0.058-0.032l31.84,5.981l12.567-33.326c0.591-1.569,3.251-2.436,5.93-1.933
							C157.183,28.443,158.881,30.129,158.29,31.698z"/>
						<path fill="none" stroke="#C20C0D" stroke-width="2" stroke-miterlimit="10" d="M102.001,56.811
							c-2.544-0.478-5.113,0.38-5.917,1.932"/>
						<polyline fill="none" stroke="#C20C0D" stroke-width="2" stroke-miterlimit="10" points="104.166,57.217 103.463,57.084 
							102.001,56.811 						"/>
						<path fill="none" stroke="#C20C0D" stroke-width="2" stroke-miterlimit="10" d="M95.897,59.203l0.08-0.21
							c0.03-0.083,0.066-0.163,0.105-0.243c0.002-0.003,0.002-0.003,0.002-0.006"/>
					</g>
				</g>
			</g>
			<g>
				<polygon fill="#FFFFFF" stroke="#C20C0D" stroke-width="2" stroke-miterlimit="10" points="187.877,40.976 180.346,43.131 
					179.021,48.655 173.294,44.354 165.056,44.934 169.048,40.121 165.281,34.955 173.477,36.281 179.386,32.508 180.459,38.142 
									"/>
				<path fill="#0C0C0C" stroke="#C20C0D" stroke-width="2" stroke-miterlimit="10" d="M188.42,40.998l-7.743-2.955l-1.115-5.873
					l-6.16,3.934l-3.902-0.632l-4.656-0.753l3.256,4.463l0.678,0.932l-1.89,2.278l-2.27,2.738l1.272-0.091l7.313-0.512l5.976,4.49
					l1.382-5.767L188.42,40.998z M173.388,44.184l-7.369,0.518l-0.524,0.036l0.935-1.127l2.889-3.481l-1.039-1.424l-2.558-3.514
					l3.66,0.593l4.169,0.676l5.658-3.613l1.026,5.395l7.099,2.71l-7.204,2.063l-1.264,5.282L173.388,44.184z"/>
			</g>
			<g>
				<path fill="#FFFFFF" stroke="#C20C0D" stroke-width="2" stroke-miterlimit="10" d="M60.646,93.337
					c-1.128,2.989-7.426,4.4-14.069,3.151c-6.644-1.248-11.116-4.681-9.989-7.671c1.127-2.986,7.424-4.396,14.068-3.147
					C57.3,86.918,61.773,90.351,60.646,93.337z"/>
				<path stroke="#C20C0D" stroke-width="2" stroke-miterlimit="10" d="M46.517,96.646c-6.76-1.27-11.318-4.801-10.16-7.872
					c1.157-3.068,7.599-4.531,14.358-3.261c6.761,1.27,11.319,4.799,10.162,7.868C59.72,96.452,53.278,97.916,46.517,96.646z
					 M50.597,85.827c-6.505-1.222-12.685,0.139-13.777,3.034c-1.093,2.896,3.312,6.248,9.816,7.47
					c6.505,1.222,12.687-0.14,13.778-3.037C61.507,90.398,57.102,87.049,50.597,85.827z"/>
			</g>
		</g>
		<path fill="#F7F7F7" stroke="#000000" stroke-width="4" stroke-miterlimit="10" d="M79.757,23.764"/>
		<path fill="#F7F7F7" stroke="#000000" stroke-width="4" stroke-miterlimit="10" d="M59.937,73.366"/>
		<polyline fill="#F7F7F7" stroke="#000000" stroke-width="4" stroke-miterlimit="10" points="59.937,73.366 59.937,73.366 
			59.937,73.366 		"/>
		<polyline fill="none" stroke="#000000" stroke-width="4" stroke-miterlimit="10" points="79.053,22.937 78.807,23.584 
			78.807,23.584 59.937,73.366 39.383,69.474 		"/>
		<polyline fill="none" stroke="#000000" stroke-width="4" stroke-miterlimit="10" points="78.967,23.54 114.52,30.348 
			114.52,30.348 123.483,6.702 138.733,9.59 		"/>
	</g>
	<g>
	</g>
</g>
<g>
</g>
<g>
</g>
<g>
</g>
<g>
</g>
<g>
</g>
<g>
</g>
</svg>
